<mxfile host="app.diagrams.net" modified="2024-02-01T18:00:31.329Z" agent="Mozilla/5.0 (X11; Linux x86_64; rv:109.0) Gecko/20100101 Firefox/114.0" etag="ZaQ0TgkFxvlLu5m1-zTo" version="23.1.1" type="device">
  <diagram name="Página-1" id="Rganr19uKsDzd_jjGSZs">
    <mxGraphModel dx="1188" dy="789" grid="1" gridSize="10" guides="1" tooltips="1" connect="1" arrows="1" fold="1" page="1" pageScale="1" pageWidth="1169" pageHeight="827" background="#CCFFFF" math="0" shadow="1">
      <root>
        <mxCell id="0" />
        <mxCell id="1" parent="0" />
        <mxCell id="8gqbpLLkER0GLrXkm65x-2" style="edgeStyle=orthogonalEdgeStyle;rounded=0;orthogonalLoop=1;jettySize=auto;html=1;exitX=0.5;exitY=1;exitDx=0;exitDy=0;" edge="1" parent="1" source="KhnNNgycjfnA8WjDQx8Y-1" target="KhnNNgycjfnA8WjDQx8Y-2">
          <mxGeometry relative="1" as="geometry" />
        </mxCell>
        <mxCell id="KhnNNgycjfnA8WjDQx8Y-1" value="Introducir número primo" style="rounded=1;whiteSpace=wrap;html=1;" parent="1" vertex="1">
          <mxGeometry x="490" y="120" width="120" height="60" as="geometry" />
        </mxCell>
        <mxCell id="8gqbpLLkER0GLrXkm65x-3" style="edgeStyle=orthogonalEdgeStyle;rounded=0;orthogonalLoop=1;jettySize=auto;html=1;exitX=0.5;exitY=1;exitDx=0;exitDy=0;entryX=0.5;entryY=0;entryDx=0;entryDy=0;" edge="1" parent="1" source="KhnNNgycjfnA8WjDQx8Y-2" target="KhnNNgycjfnA8WjDQx8Y-21">
          <mxGeometry relative="1" as="geometry" />
        </mxCell>
        <mxCell id="KhnNNgycjfnA8WjDQx8Y-2" value="&lt;div&gt;Calcular el factorial de ese número&lt;br&gt;&lt;/div&gt;" style="rounded=1;whiteSpace=wrap;html=1;" parent="1" vertex="1">
          <mxGeometry x="490" y="210" width="120" height="60" as="geometry" />
        </mxCell>
        <mxCell id="8gqbpLLkER0GLrXkm65x-4" style="edgeStyle=orthogonalEdgeStyle;rounded=0;orthogonalLoop=1;jettySize=auto;html=1;exitX=1;exitY=0.5;exitDx=0;exitDy=0;entryX=0;entryY=0.5;entryDx=0;entryDy=0;" edge="1" parent="1" source="KhnNNgycjfnA8WjDQx8Y-3" target="KhnNNgycjfnA8WjDQx8Y-4">
          <mxGeometry relative="1" as="geometry" />
        </mxCell>
        <mxCell id="8gqbpLLkER0GLrXkm65x-5" style="edgeStyle=orthogonalEdgeStyle;rounded=0;orthogonalLoop=1;jettySize=auto;html=1;exitX=0;exitY=0.5;exitDx=0;exitDy=0;entryX=1;entryY=0.5;entryDx=0;entryDy=0;" edge="1" parent="1" source="KhnNNgycjfnA8WjDQx8Y-3" target="KhnNNgycjfnA8WjDQx8Y-5">
          <mxGeometry relative="1" as="geometry" />
        </mxCell>
        <mxCell id="KhnNNgycjfnA8WjDQx8Y-3" value="&lt;div&gt;¿Es el&lt;/div&gt;&lt;div&gt;&amp;nbsp;número primo?&lt;/div&gt;" style="rhombus;whiteSpace=wrap;html=1;" parent="1" vertex="1">
          <mxGeometry x="510" y="380" width="80" height="80" as="geometry" />
        </mxCell>
        <mxCell id="KhnNNgycjfnA8WjDQx8Y-19" style="edgeStyle=orthogonalEdgeStyle;rounded=0;orthogonalLoop=1;jettySize=auto;html=1;exitX=0.5;exitY=0;exitDx=0;exitDy=0;entryX=0.5;entryY=1;entryDx=0;entryDy=0;" parent="1" source="KhnNNgycjfnA8WjDQx8Y-4" target="KhnNNgycjfnA8WjDQx8Y-18" edge="1">
          <mxGeometry relative="1" as="geometry" />
        </mxCell>
        <mxCell id="KhnNNgycjfnA8WjDQx8Y-4" value="Fin del programa" style="rounded=1;whiteSpace=wrap;html=1;" parent="1" vertex="1">
          <mxGeometry x="720" y="390" width="120" height="60" as="geometry" />
        </mxCell>
        <mxCell id="8gqbpLLkER0GLrXkm65x-6" style="edgeStyle=orthogonalEdgeStyle;rounded=0;orthogonalLoop=1;jettySize=auto;html=1;exitX=0.5;exitY=1;exitDx=0;exitDy=0;entryX=0.5;entryY=1;entryDx=0;entryDy=0;" edge="1" parent="1" source="KhnNNgycjfnA8WjDQx8Y-5" target="KhnNNgycjfnA8WjDQx8Y-4">
          <mxGeometry relative="1" as="geometry">
            <Array as="points">
              <mxPoint x="320" y="500" />
              <mxPoint x="780" y="500" />
            </Array>
          </mxGeometry>
        </mxCell>
        <mxCell id="KhnNNgycjfnA8WjDQx8Y-5" value="Indicar que el número no es primo por pantalla" style="rounded=1;whiteSpace=wrap;html=1;" parent="1" vertex="1">
          <mxGeometry x="260" y="390" width="120" height="60" as="geometry" />
        </mxCell>
        <mxCell id="8gqbpLLkER0GLrXkm65x-1" style="edgeStyle=orthogonalEdgeStyle;rounded=0;orthogonalLoop=1;jettySize=auto;html=1;exitX=0.5;exitY=1;exitDx=0;exitDy=0;entryX=0.5;entryY=0;entryDx=0;entryDy=0;" edge="1" parent="1" source="KhnNNgycjfnA8WjDQx8Y-6" target="KhnNNgycjfnA8WjDQx8Y-1">
          <mxGeometry relative="1" as="geometry" />
        </mxCell>
        <mxCell id="KhnNNgycjfnA8WjDQx8Y-6" value="" style="ellipse;whiteSpace=wrap;html=1;aspect=fixed;fillColor=#FFFFFF;fillStyle=auto;gradientColor=#000000;gradientDirection=radial;" parent="1" vertex="1">
          <mxGeometry x="530" y="40" width="40" height="40" as="geometry" />
        </mxCell>
        <mxCell id="KhnNNgycjfnA8WjDQx8Y-18" value="" style="ellipse;shape=doubleEllipse;whiteSpace=wrap;html=1;aspect=fixed;gradientColor=#FFFFFF;gradientDirection=radial;fillColor=#000000;" parent="1" vertex="1">
          <mxGeometry x="760" y="310" width="40" height="40" as="geometry" />
        </mxCell>
        <mxCell id="8gqbpLLkER0GLrXkm65x-7" style="edgeStyle=orthogonalEdgeStyle;rounded=0;orthogonalLoop=1;jettySize=auto;html=1;exitX=0.5;exitY=1;exitDx=0;exitDy=0;entryX=0.5;entryY=0;entryDx=0;entryDy=0;" edge="1" parent="1" source="KhnNNgycjfnA8WjDQx8Y-21" target="KhnNNgycjfnA8WjDQx8Y-3">
          <mxGeometry relative="1" as="geometry" />
        </mxCell>
        <mxCell id="KhnNNgycjfnA8WjDQx8Y-21" value="Mostrar el cálculo por pantalla" style="rounded=1;whiteSpace=wrap;html=1;" parent="1" vertex="1">
          <mxGeometry x="490" y="300" width="120" height="60" as="geometry" />
        </mxCell>
        <mxCell id="8gqbpLLkER0GLrXkm65x-8" value="No" style="text;html=1;strokeColor=none;fillColor=none;align=center;verticalAlign=middle;whiteSpace=wrap;rounded=0;" vertex="1" parent="1">
          <mxGeometry x="420" y="390" width="60" height="30" as="geometry" />
        </mxCell>
        <mxCell id="8gqbpLLkER0GLrXkm65x-9" value="Si" style="text;html=1;align=center;verticalAlign=middle;resizable=0;points=[];autosize=1;strokeColor=none;fillColor=none;" vertex="1" parent="1">
          <mxGeometry x="645" y="388" width="30" height="30" as="geometry" />
        </mxCell>
      </root>
    </mxGraphModel>
  </diagram>
</mxfile>
